# xmcd
#
# Track frame offsets: 
#        150
#        18969
#        40233
#        58166
#        74175
#        91964
#        107588
#        134241
#        147989
#        156677
#        178329
#        195024
#        219549
#
# Disc length: 3171 seconds
#
# Revision: 0
# Processed by: cddbd v1.5.2PL0 Copyright (c) Steve Scherf et al.
# Submitted via: ExactAudioCopyFreeDBPlugin 1.0
#
DISCID=cc0c610d
DTITLE=Per Frost - The Calling
DYEAR=2018
DGENRE=Blues
TTITLE0=Black Crow Blues
TTITLE1=A Case Of You
TTITLE2=Take Me To The River
TTITLE3=Tannis Bay
TTITLE4=Give It To Me
TTITLE5=Walking After Midnight
TTITLE6=Sinking Like A Stone
TTITLE7=Lay Down
TTITLE8=Christer´s Krakor, Prelude
TTITLE9=The Calling
TTITLE10=Heart To Heart
TTITLE11=Furious Machines
TTITLE12=Karla Ponti In The Twilight
EXTD=
EXTT0=
EXTT1=
EXTT2=
EXTT3=
EXTT4=
EXTT5=
EXTT6=
EXTT7=
EXTT8=
EXTT9=
EXTT10=
EXTT11=
EXTT12=
PLAYORDER=
